<?xml version="1.0" encoding="UTF-8" standalone="yes"?>
<svg version="1.1" id="Layer_1" xmlns:x="&amp;ns_extend;" xmlns:i="&amp;ns_ai;" xmlns:graph="&amp;ns_graphs;" xmlns="http://www.w3.org/2000/svg" xmlns:xlink="http://www.w3.org/1999/xlink" x="0px" y="0px" viewBox="0 0 315 182.3" style="enable-background:new 0 0 315 182.3;" xml:space="preserve">
      <style type="text/css">.st0{fill:url(#SVGID_1_);}	.st1{opacity:0.3;enable-background:new    ;}</style>
    <metadata>
              <sfw>
                      <slices/>
            <sliceSourceBounds bottomLeftOrigin="true" height="182.3" width="315" x="0" y="0"/>
                  </sfw>
          </metadata>
    <g id="color_index_g">
              <linearGradient id="SVGID_1_" gradientUnits="userSpaceOnUse" x1="-3.312445e-06" y1="92.1295" x2="315" y2="92.1295" gradientTransform="matrix(1 0 0 -1 0 183.28)">
                      <stop offset="0.2263" style="stop-color:#F4539C"/>
            <stop offset="0.7402" style="stop-color:#931EA0"/>
                  </linearGradient>
        <path class="st0" d="M297.5,18.3C286.2,6.5,271.3,0,255.7,0c-13.5,0-25.9,4.1-36.4,11.6c-2.7,1.9-3.4,5.6-1.5,8.4l0.1,0.1&#x9;&#x9;c1.9,2.9,5.9,3.5,8.7,1.5c7.2-5.3,16.8-9.3,29.2-9.3c25.1,0,46.6,22.3,47,48.6c0.3,21.6-13.5,38.4-37.5,60&#x9;&#x9;c-16.3,14.7-39.6,33.2-52.9,43.6c-3.8,3-9.2,3-13,0c-8.3-6.5-20.4-16.1-32.3-26c3.5-3,6.7-5.8,9.7-8.5c26.6-24,42-43,41.6-69.3&#x9;&#x9;c-0.2-15.5-6.6-31-17.5-42.4C189.5,6.5,174.7,0,159.1,0c-18,0-34.3,7.3-46.3,20.5c0-0.2-2.6,2.4-3.8,4c0,0,0,0,0,0&#x9;&#x9;c-0.2,0.3-0.5,0.7-0.7,1c-0.3,0.4-0.6,0.9-0.9,1.3c-0.3,0.5-0.6,0.9-0.9,1.4c-0.2,0.4-0.5,0.8-0.7,1.2c-0.3,0.5-0.6,1-0.8,1.5&#x9;&#x9;c-0.2,0.4-0.5,0.9-0.7,1.3c-0.3,0.5-0.5,0.9-0.7,1.4c-0.3,0.6-0.6,1.2-0.9,1.8c-0.1,0.3-0.3,0.6-0.4,0.9v0&#x9;&#x9;c-3.5,7.7-5.4,16.1-5.5,24.5c-0.4,26.1,14.8,45.1,41.1,68.9h0c0.1,0.1,19.7,17,19.7,16.9c15.8,13.1,32.8,26.5,41.9,33.5&#x9;&#x9;c3.8,3,9.1,3,12.9,0c13-10.1,42.7-33.4,61.1-50c26.6-24,42-43,41.6-69.3C314.8,45.2,308.4,29.7,297.5,18.3z M146.5,120.9&#x9;&#x9;c-24-21.6-37.8-38.4-37.5-60c0.1-7.6,2-14.9,5.2-21.4l0.3-0.6c5.7-10,19.2-26.7,44.6-26.7c25.1,0,46.6,22.3,47,48.6&#x9;&#x9;c0.3,21.6-13.5,38.4-37.5,60c-3.4,3.1-7.2,6.3-11,9.6C153.6,127.3,149.9,124,146.5,120.9z M115.7,164.5c-3.8,3-9.2,3-13,0&#x9;&#x9;c-13.3-10.4-36.6-29-52.9-43.6c-24-21.6-37.9-38.4-37.5-60c0.4-26.4,21.9-48.6,47-48.6c12.4,0,22,4,29.2,9.3c2.8,2,6.7,1.4,8.7-1.5&#x9;&#x9;l0.1-0.1c1.8-2.7,1.1-6.4-1.5-8.4C85.2,4.1,72.8,0,59.3,0C43.7,0,28.8,6.5,17.5,18.3C6.6,29.7,0.2,45.2,0,60.7&#x9;&#x9;C-0.4,87,15,106,41.6,130c18.4,16.6,48.1,39.9,61.1,50c3.8,3,9.1,3,12.9,0c7.2-5.6,19.5-15.2,32.2-25.5c-3.2-2.7-6.4-5.4-9.5-8.1&#x9;&#x9;C129.8,153.4,121.7,159.8,115.7,164.5z"/>
          </g>
    <g>
              <path class="st1" d="M166.9,122.4c-3,2.6-6.1,5.4-9.4,8.2c3.1,2.6,6.3,5.3,9.5,8c3.3-2.8,6.4-5.6,9.4-8.2&#x9;&#x9;C173.2,127.7,170,125,166.9,122.4z"/>
          </g>
  </svg>